<svg width="765" height="419" viewBox="0 0 765 419" fill="none" xmlns="http://www.w3.org/2000/svg">
<g clip-path="url(#clip0)">
<path d="M49.458 418.646C43.01 418.646 36.6252 417.378 30.6682 414.915C24.7112 412.452 19.2986 408.842 14.7395 404.291C10.1805 399.74 6.56427 394.337 4.09741 388.391C1.63055 382.445 0.361354 376.073 0.362305 369.637C0.362305 356.641 5.53487 344.178 14.7421 334.988C23.9493 325.799 36.437 320.636 49.458 320.636H102.994V418.646H49.458Z" fill="#8CA6AD" stroke="black" stroke-miterlimit="10"/>
<path d="M797.535 418.646H102.995V320.636H797.535C810.557 320.636 823.045 325.799 832.253 334.988C841.462 344.177 846.636 356.641 846.638 369.637C846.638 376.073 845.368 382.446 842.9 388.392C840.432 394.338 836.816 399.741 832.256 404.291C827.696 408.842 822.283 412.452 816.326 414.915C810.368 417.378 803.983 418.646 797.535 418.646Z" fill="#FDF3E8" stroke="black" stroke-linecap="round" stroke-linejoin="round"/>
<path d="M57.8687 359.254C56.4941 359.256 55.1758 359.8 54.2004 360.766C53.225 361.733 52.6714 363.045 52.66 364.417V367.533H51.624C51.0719 367.533 50.5423 367.752 50.1512 368.141C49.7602 368.53 49.5395 369.057 49.5376 369.608V377.916C49.5376 378.469 49.7574 378.998 50.1487 379.389C50.54 379.779 51.0707 379.999 51.624 379.999H64.1062C64.6595 379.999 65.1902 379.779 65.5815 379.389C65.9728 378.998 66.1926 378.469 66.1926 377.916V369.637C66.1907 369.086 65.97 368.559 65.5789 368.17C65.1879 367.781 64.6583 367.562 64.1062 367.562H63.0702V364.417C63.0607 363.046 62.5087 361.734 61.5344 360.767C60.5602 359.8 59.2427 359.256 57.8687 359.254ZM54.7464 367.562V364.417C54.7464 363.59 55.0753 362.798 55.6609 362.213C56.2464 361.629 57.0406 361.301 57.8687 361.301C58.6968 361.301 59.491 361.629 60.0766 362.213C60.6621 362.798 60.9911 363.59 60.9911 364.417V367.533L54.7464 367.562Z" fill="#FDF3E8"/>
<path d="M167.84 74.8862H241.009C249.352 74.892 257.352 78.202 263.252 84.0896C269.153 89.9772 272.471 97.961 272.479 106.288C272.479 110.416 271.664 114.503 270.081 118.316C268.499 122.13 266.179 125.595 263.255 128.513C260.331 131.432 256.859 133.747 253.038 135.327C249.218 136.906 245.123 137.719 240.987 137.719H193.71L183.879 147.531L174.048 137.719H167.84C159.488 137.719 151.478 134.408 145.572 128.513C139.666 122.619 136.348 114.624 136.348 106.288C136.356 97.9573 139.677 89.9701 145.582 84.0819C151.487 78.1937 159.493 74.8862 167.84 74.8862Z" fill="#384A51" stroke="black" stroke-linecap="round" stroke-linejoin="round"/>
<path d="M182.068 111.92C184.744 111.92 186.914 109.755 186.914 107.083C186.914 104.412 184.744 102.246 182.068 102.246C179.391 102.246 177.221 104.412 177.221 107.083C177.221 109.755 179.391 111.92 182.068 111.92Z" fill="#F7C5A8"/>
<path opacity="0.7" d="M204.41 111.92C207.086 111.92 209.256 109.755 209.256 107.083C209.256 104.412 207.086 102.246 204.41 102.246C201.733 102.246 199.563 104.412 199.563 107.083C199.563 109.755 201.733 111.92 204.41 111.92Z" fill="#F7C5A8"/>
<path opacity="0.4" d="M226.759 111.92C229.435 111.92 231.605 109.755 231.605 107.083C231.605 104.412 229.435 102.246 226.759 102.246C224.082 102.246 221.912 104.412 221.912 107.083C221.912 109.755 224.082 111.92 226.759 111.92Z" fill="#F7C5A8"/>
<path d="M299.703 0.42627H178.888C170.536 0.42627 162.526 3.73774 156.62 9.63219C150.714 15.5266 147.396 23.5212 147.396 31.8572C147.398 40.192 150.717 48.1847 156.622 54.0776C162.528 59.9705 170.537 63.281 178.888 63.281H265.821L275.652 73.0928L285.483 63.281H299.703C308.054 63.281 316.062 59.9703 321.966 54.0772C327.871 48.1841 331.188 40.1913 331.188 31.8572C331.188 23.5225 327.871 15.529 321.967 9.63474C316.062 3.7405 308.054 0.428187 299.703 0.42627Z" fill="#9A9AFF" stroke="black" stroke-linecap="round" stroke-linejoin="round"/>
<path d="M178.475 20.3535H301.297" stroke="black" stroke-linecap="round" stroke-linejoin="round"/>
<path d="M178.475 31.7705H301.297" stroke="black" stroke-linecap="round" stroke-linejoin="round"/>
<path d="M178.475 43.1802H301.297" stroke="black" stroke-linecap="round" stroke-linejoin="round"/>
<path d="M558.482 0.361328H390.875C382.517 0.361328 374.501 3.67508 368.591 9.5736C362.681 15.4721 359.361 23.4722 359.361 31.814C359.36 35.945 360.175 40.0358 361.758 43.8526C363.341 47.6695 365.662 51.1376 368.589 54.059C371.515 56.9805 374.99 59.2979 378.813 60.879C382.637 62.4601 386.736 63.2739 390.875 63.2739H408.747L418.585 73.0929L428.423 63.2739H558.482C566.842 63.2739 574.86 59.9594 580.771 54.0595C586.682 48.1596 590.003 40.1577 590.003 31.814C590.001 23.4716 586.679 15.4715 580.768 9.57316C574.857 3.67485 566.841 0.361328 558.482 0.361328Z" fill="#F9F9F9" stroke="black" stroke-linecap="round" stroke-linejoin="round"/>
<path d="M556.222 54.879H413.709V8.55322H556.222C562.37 8.55322 568.267 10.9909 572.614 15.3301C576.962 19.6692 579.404 25.5543 579.404 31.6908C579.411 34.7335 578.816 37.7477 577.654 40.5607C576.492 43.3737 574.785 45.9304 572.632 48.0843C570.479 50.2382 567.921 51.947 565.105 53.1129C562.289 54.2789 559.27 54.879 556.222 54.879Z" fill="#F0F0F0"/>
<path d="M390.817 49.63C389.553 49.6281 388.342 49.1262 387.448 48.2344C386.555 47.3426 386.052 46.1336 386.05 44.8723V43.3828H398.909C399.565 43.3828 400.194 43.1233 400.658 42.6611C401.122 42.1989 401.384 41.5718 401.386 40.9172V29.1822C401.386 28.9775 401.306 28.7811 401.162 28.635C401.019 28.489 400.823 28.405 400.618 28.4013H392.316V36.2753C392.316 36.4504 392.247 36.6186 392.124 36.7431C392 36.8676 391.833 36.9386 391.657 36.9405H386.709C386.534 36.9386 386.366 36.8676 386.242 36.7431C386.119 36.6186 386.05 36.4504 386.05 36.2753V24.4896C386.052 23.8669 386.3 23.2703 386.741 22.83C387.183 22.3897 387.78 22.1416 388.404 22.1396H403.364C404.63 22.1416 405.843 22.6442 406.738 23.5374C407.633 24.4305 408.136 25.6414 408.138 26.9045V44.8723C408.136 46.1348 407.632 47.3449 406.737 48.2369C405.842 49.129 404.629 49.63 403.364 49.63H390.817Z" fill="#8CA6AD"/>
<path d="M583.128 74.8862H451.844C443.497 74.8862 435.491 78.1937 429.586 84.0819C423.681 89.9701 420.36 97.9573 420.352 106.288C420.352 110.416 421.167 114.503 422.749 118.316C424.332 122.13 426.651 125.595 429.576 128.513C435.482 134.408 443.492 137.719 451.844 137.719H459.813L469.643 147.531L479.474 137.719H583.07C587.21 137.727 591.312 136.919 595.139 135.343C598.966 133.767 602.445 131.453 605.375 128.534C608.306 125.614 610.631 122.147 612.217 118.33C613.803 114.513 614.619 110.421 614.619 106.288C614.612 97.9573 611.291 89.9701 605.386 84.0819C599.481 78.1937 591.475 74.8862 583.128 74.8862Z" fill="#384A51" stroke="black" stroke-linecap="round" stroke-linejoin="round"/>
<path d="M451.902 94.8203H584.722" stroke="#F7C5A8" stroke-linecap="round" stroke-linejoin="round"/>
<path d="M451.902 106.23H584.722" stroke="#F7C5A8" stroke-linecap="round" stroke-linejoin="round"/>
<path d="M451.902 117.647H584.722" stroke="#F7C5A8" stroke-linecap="round" stroke-linejoin="round"/>
<path d="M220.768 148.746L225.998 143.923L255.164 170.914L251.499 175.831L220.768 148.746Z" fill="#8CA6AD"/>
<path fill-rule="evenodd" clip-rule="evenodd" d="M237.568 192.613C238.379 199.518 239.147 218.397 239.248 240.074C239.306 252.727 237.285 278.352 233.192 310.723L221.354 310.636C216.841 269.827 213.907 236.574 212.545 217.11C210.43 223.444 207.981 230.508 205.301 237.883C198.882 255.757 180.018 296.971 174.15 307.296C170.477 313.767 161.986 308.106 163.616 302.372C165.246 296.638 188.247 199.778 196.586 181.868C199.368 175.889 213.588 175.954 218.609 183.38C225.846 180.487 236.293 181.76 237.568 192.613Z" fill="#B28B67"/>
<path fill-rule="evenodd" clip-rule="evenodd" d="M213.748 290.579C214.255 284.664 208.293 210.154 210.003 190.306C210.727 181.565 240.48 176.518 242.494 193.133L239.024 292.791L213.748 290.579Z" fill="#8CA6AD"/>
<path fill-rule="evenodd" clip-rule="evenodd" d="M235.256 307.932C235.074 307.539 234.743 307.234 234.335 307.084C233.928 306.934 233.478 306.95 233.083 307.13C231.509 307.959 229.785 308.466 228.012 308.619C226.505 308.619 224.544 308.062 222.129 306.949L220.731 303.587C220.687 303.488 220.623 303.399 220.544 303.325C220.465 303.25 220.372 303.192 220.27 303.154C220.168 303.116 220.06 303.098 219.952 303.102C219.843 303.105 219.736 303.13 219.637 303.175L198.027 312.842C196.303 313.102 194.144 313.399 191.507 313.724C188.87 314.049 188.211 316.204 189.428 320.188L235.966 320.087C236.38 317.94 236.622 315.764 236.691 313.579C236.533 311.663 236.063 309.785 235.3 308.019L235.256 307.932Z" fill="#384A51"/>
<path fill-rule="evenodd" clip-rule="evenodd" d="M178.359 303.84C178.361 303.346 178.167 302.872 177.819 302.521C177.471 302.17 176.999 301.971 176.504 301.967C173.809 301.967 171.839 301.649 170.578 301.063C169.028 300.34 167.289 298.829 165.348 296.53L165.536 292.408C165.538 292.286 165.516 292.164 165.47 292.05C165.425 291.936 165.358 291.832 165.273 291.744C165.187 291.656 165.085 291.586 164.973 291.538C164.86 291.489 164.739 291.463 164.616 291.461L137.812 291.02C135.913 290.456 133.559 289.719 130.726 288.8C127.894 287.882 126.148 289.762 125.481 294.44L173.295 316.652C174.755 314.653 176.051 312.54 177.171 310.333C177.757 309.082 178.17 306.97 178.395 304.006C178.389 303.949 178.376 303.894 178.359 303.84Z" fill="#384A51"/>
<path fill-rule="evenodd" clip-rule="evenodd" d="M209.952 174.125C231.526 179.656 265.886 227.153 291.177 239.778C324.863 256.596 338.939 288.678 338.939 288.678C334.991 319.986 304.818 330.463 282.853 313.102C222.332 265.265 219.217 209.706 217.399 209.778C216.182 209.829 206.351 238.932 187.892 287.253L164.898 276.537C167.202 271.592 180.974 209.294 191.457 186.879C194.347 180.654 200.722 171.76 209.952 174.125Z" fill="#8CA6AD"/>
<path d="M263.22 201.319C257.729 208.144 275.536 217.161 275.536 217.161C275.536 217.161 314.83 189.685 316.351 186.236C320.053 177.819 323.791 154.913 307.404 155.492C302.819 155.651 278.615 182.208 263.22 201.319Z" fill="#FDF3E8"/>
<path d="M305.673 160.922L335.853 149.021C335.853 149.021 359.941 156.511 358.999 186.033C357.152 243.48 345.669 291.649 345.669 291.649C345.669 291.649 324.573 283.385 307.759 269.235C290.945 255.085 285.823 242.655 285.823 242.655L305.673 160.922Z" fill="#FDF3E8"/>
<g style="mix-blend-mode:multiply">
<path d="M195.601 262.207C195.601 262.207 214.154 213.762 217.377 209.778C217.377 209.778 223.347 264.267 281.657 312.545C281.657 312.545 262.358 295.98 239.9 263.342C223.571 239.604 217.566 210.284 217.566 210.284L195.601 262.207Z" fill="#8CA6AD"/>
</g>
<path d="M251.339 173.604C250.984 173.257 223.042 148.63 222.55 148.203C222.057 147.777 221.202 148.203 220.768 148.745C220.564 148.989 220.455 149.299 220.462 149.616C220.468 149.934 220.59 150.238 220.804 150.474C221.224 150.85 249.057 175.86 249.369 176.142C249.919 176.684 251.086 176.366 251.499 175.831C251.717 175.493 251.82 175.093 251.791 174.691C251.763 174.289 251.604 173.908 251.339 173.604Z" fill="#384A51"/>
<path d="M240.813 173.734C240.813 173.734 238.285 159.042 237.372 156.721C236.459 154.4 234.923 150.38 234.329 150.293C233.735 150.206 231.562 150.517 234.329 157.429C237.097 164.342 231.265 159.866 231.265 159.866L225.607 154.805C225.334 154.977 225.138 155.247 225.06 155.559C224.982 155.872 225.027 156.202 225.187 156.482C224.868 156.721 224.641 157.062 224.545 157.448C224.449 157.834 224.489 158.241 224.658 158.601C224.301 158.942 224.049 159.377 223.929 159.856C223.81 160.334 223.829 160.837 223.984 161.305C222.731 162.621 223.753 165.043 225.187 166.265C234.192 173.908 234.605 179.28 234.605 179.28L240.813 173.734Z" fill="#B28B67"/>
<path d="M234.59 179.244C234.59 179.244 249.601 228.773 280.383 238.534C285.823 240.262 331.731 205.997 331.731 205.997L322.422 192.476L282.266 222.265C272.66 207.761 247.782 190.017 240.813 173.734C237.082 165.021 234.59 179.244 234.59 179.244Z" fill="#B28B67"/>
<path d="M334.556 173.336L300.79 204.623L310.968 221.708C306.021 224.109 349.27 196.864 350.009 191.029C351.124 182.165 353.631 173.177 343.337 170.958C341.788 170.663 340.193 170.724 338.672 171.136C337.15 171.548 335.743 172.3 334.556 173.336Z" fill="#FDF3E8"/>
<g style="mix-blend-mode:multiply">
<g style="mix-blend-mode:multiply">
<path d="M346.358 195.086C346.208 195.328 346.036 195.556 345.843 195.766C345.445 196.243 321.937 214.883 311.15 221.983L310.86 222.179L310.686 221.875C307.882 217.146 310.932 222.215 307.788 216.922C304.84 211.926 303.63 208.737 300.978 204.247L300.833 204.001L301.058 203.82C311.2 195.527 318.314 186.706 324.61 181.558L331.97 175.614L333.962 174.045C334.188 173.852 334.43 173.68 334.687 173.532C334.495 173.753 334.282 173.954 334.049 174.132L332.13 175.788C330.398 177.234 327.949 179.316 324.885 181.883C318.633 187.082 311.555 195.968 301.485 204.334L301.565 203.907C304.224 208.39 305.441 211.579 308.389 216.568C311.519 221.868 308.469 216.799 311.287 221.535L310.824 221.427C321.582 214.384 345.365 196.12 345.785 195.693C345.956 195.473 346.148 195.269 346.358 195.086Z" fill="#FDF3E8"/>
</g>
</g>
<path fill-rule="evenodd" clip-rule="evenodd" d="M313.909 77.8071H316.191C329.753 77.8071 340.75 93.9528 340.75 107.496V126.295C340.75 132.324 338.524 138.141 334.497 142.635C330.471 147.129 324.926 149.984 318.923 150.654C318.923 150.719 318.923 150.777 318.923 150.835H285.786C280.549 145.723 283.867 112.333 286.554 100.128C289.952 84.6616 301.587 77.8071 313.909 77.8071Z" fill="black"/>
<path fill-rule="evenodd" clip-rule="evenodd" d="M335.744 150.249C335.744 150.249 333.245 161.963 320.393 163.756C310.613 165.115 305.984 155.998 305.984 155.998L306.209 139.707C306.209 139.707 301.094 140.944 298.327 139.23C286.084 131.667 287.134 105.095 293.748 92.7814C300.362 80.4679 334.404 75.0956 336.121 99.4986C336.715 107.965 333.151 115.529 327.884 121.689L335.744 150.249Z" fill="#B28B67"/>
<path fill-rule="evenodd" clip-rule="evenodd" d="M316.8 106.433C307.635 100.764 297.319 99.4119 294.661 90.3087C298.21 85.0883 302.391 78.9424 315.619 78.9424C322.523 78.9424 336.186 78.9424 340.75 113.649C342.054 123.511 351.356 130.149 349.617 150.25H323.479C318.147 140.416 320.422 134.69 320.69 123.128C320.929 112.224 317.307 106.05 316.8 106.433Z" fill="black"/>
<path fill-rule="evenodd" clip-rule="evenodd" d="M293.125 94.0468C293.125 94.0468 291.162 102.723 291.162 104.827L297.646 104.929L296.769 96.5991L299.24 104.762L316.8 106.433L294.661 90.3086L293.125 94.0468Z" fill="black"/>
<g style="mix-blend-mode:multiply">
<path fill-rule="evenodd" clip-rule="evenodd" d="M306.208 139.707C306.208 139.707 312.997 139.02 317.169 136.222C317.169 136.222 315.489 140.777 306.208 142.245V139.707Z" fill="#B28B67"/>
</g>
<path fill-rule="evenodd" clip-rule="evenodd" d="M298.921 130.828C298.921 130.828 304.34 133.619 307.252 128.291C304.81 129.986 301.896 130.874 298.921 130.828Z" fill="black"/>
<path fill-rule="evenodd" clip-rule="evenodd" d="M295.885 111.913C295.719 111.711 292.915 110.836 291.285 112.557C291.104 112.745 291.285 113.027 291.408 112.918C291.943 112.462 292.612 112.191 293.314 112.145C295.19 111.834 296.233 112.347 295.885 111.913Z" fill="black"/>
<path fill-rule="evenodd" clip-rule="evenodd" d="M311.707 111.913C311.541 111.711 308.744 110.836 307.107 112.557C306.926 112.745 307.107 113.027 307.238 112.918C307.771 112.46 308.44 112.188 309.143 112.145C311.012 111.834 312.062 112.347 311.707 111.913Z" fill="black"/>
<path fill-rule="evenodd" clip-rule="evenodd" d="M299.355 113.634C299.355 113.634 295.255 124.82 299.254 125.377C300.929 125.568 302.615 125.124 303.977 124.133C303.977 124.133 299.862 125.225 298.826 124.415C297.79 123.605 297.747 121.096 299.355 113.634Z" fill="black"/>
<path d="M292.995 116.085C293.727 116.085 294.32 115.493 294.32 114.762C294.32 114.031 293.727 113.439 292.995 113.439C292.263 113.439 291.669 114.031 291.669 114.762C291.669 115.493 292.263 116.085 292.995 116.085Z" fill="black"/>
<path d="M308.802 115.774C309.535 115.774 310.128 115.182 310.128 114.451C310.128 113.72 309.535 113.128 308.802 113.128C308.07 113.128 307.477 113.72 307.477 114.451C307.477 115.182 308.07 115.774 308.802 115.774Z" fill="black"/>
<g style="mix-blend-mode:multiply">
<path d="M300.745 125.128C302.141 125.098 303.265 124.727 303.256 124.3C303.247 123.873 302.107 123.551 300.711 123.581C299.315 123.611 298.191 123.982 298.2 124.409C298.21 124.836 299.349 125.158 300.745 125.128Z" fill="#B28B67"/>
</g>
<path d="M545.016 126.522C547.098 125.877 548.193 123.444 547.461 121.087C546.728 118.73 544.446 117.341 542.363 117.986C540.281 118.631 539.186 121.064 539.918 123.421C540.651 125.778 542.933 127.167 545.016 126.522Z" fill="#E5B5A1"/>
<path d="M465.898 262.3C465.898 262.3 492.768 248.389 555.809 269.979C555.809 269.979 638.824 245.142 660.513 259.415L565.437 317.787L465.898 262.3Z" fill="#8CA6AD"/>
<path d="M515.081 179.388L492.043 229.438C488.704 235.222 489.088 245.099 491.493 248.28C494.659 252.46 501.476 252.915 509.242 252.698L547.442 254.99L548.536 239.944L505.351 235.714L536.633 190.422L515.081 179.388Z" fill="#E5B5A1"/>
<path d="M602.565 261.534L577.608 269.748C577.608 269.748 569.523 262.517 576.782 258.338C611.613 238.194 620.662 239.597 620.662 239.597C612.446 232.272 586.258 190.429 586.258 190.429L603.739 180.039L630.739 226.951C630.739 226.951 644.815 252.344 622.082 257.658L602.565 261.534Z" fill="#E5B5A1"/>
<path d="M526.563 209.511L504.888 198.115C504.888 198.115 509.307 185.932 513.82 175.209C517.174 167.256 518.848 162.455 546.471 155.34L576.448 155.687C580.723 156.15 582.244 157.025 587.134 158.145C602.123 161.573 615.387 198.636 615.387 198.636L597.696 209.482L593.712 208.6C593.14 211.405 597.899 271.801 597.899 271.801L520.934 273.392L526.563 209.511Z" fill="#FDF3E8"/>
<path d="M601.855 282.749L603.739 226.922H514.907L518.66 283.378L601.855 282.749Z" fill="black"/>
<path d="M553.354 254.239C553.354 255.417 553.704 256.569 554.36 257.549C555.015 258.529 555.948 259.292 557.039 259.743C558.129 260.194 559.33 260.312 560.488 260.082C561.646 259.852 562.709 259.285 563.544 258.452C564.379 257.618 564.947 256.557 565.178 255.401C565.408 254.245 565.29 253.047 564.838 251.959C564.386 250.87 563.621 249.94 562.639 249.285C561.658 248.63 560.504 248.281 559.323 248.281C557.74 248.281 556.221 248.908 555.102 250.026C553.982 251.143 553.354 252.659 553.354 254.239Z" fill="#FAFAFA"/>
<path d="M615.235 312.74C615.235 312.74 626.29 312.104 631.535 313.333C636.78 314.562 638.896 320.354 638.403 324.179C637.911 328.004 634.527 335.336 615.315 333.015L615.235 312.74Z" fill="#8CA6AD"/>
<path d="M505.554 307.592C503.621 307.438 501.678 307.748 499.889 308.495C498.099 309.242 496.515 310.405 495.267 311.887C491.029 316.949 494.427 323.629 498.65 325.748C502.874 327.867 505.475 328.257 513.139 327.527L505.554 307.592Z" fill="#8CA6AD"/>
<path d="M527.925 308.164C527.925 308.164 519.065 315.156 531.932 324.512C531.932 324.512 554.911 318.915 556.679 318.265L548.992 303.384L527.925 308.164Z" fill="#E5B5A1"/>
<path d="M577.956 323.926L593.661 328.821C593.661 328.821 610.94 323.811 595.364 310.608L579.861 308.438L577.956 323.926Z" fill="#E5B5A1"/>
<path d="M522.818 305.647C522.818 305.647 508.329 306.92 503.512 307.968C498.694 309.017 491.377 317.99 499.245 324.447C507.112 330.904 528.041 325.466 531.932 324.512L527.925 308.164L522.818 305.647Z" fill="#384A51"/>
<path d="M595.364 310.6C595.364 310.6 624.436 313.492 630.022 314.83C635.607 316.168 640.707 325.198 631.847 330.26C622.987 335.321 600.602 332.718 593.662 328.814L595.364 310.6Z" fill="#384A51"/>
<path d="M582.491 306.342C582.491 306.342 557.367 291.288 546.189 283.594C535.01 275.901 504.497 259.929 479.619 260.066C454.742 260.204 454.227 272.474 454.437 276.075C454.735 280.413 456.611 296.32 474.273 301.692C487.632 305.756 571.052 325.372 577.383 326.196L582.491 306.342Z" fill="#8CA6AD"/>
<path d="M547.123 321.128L539.712 303.558C539.712 303.558 560.388 293.63 567.494 288.374C574.601 283.117 611.823 255.576 647.799 256.415C683.775 257.253 668.808 280.434 666.946 283.023C665.084 285.611 655.978 297.961 641.033 300.976C626.088 303.991 553.266 321.8 547.123 321.128Z" fill="#8CA6AD"/>
<path d="M461.407 263.797C461.407 263.797 495.253 241.245 576.289 302.596C576.289 302.596 506.953 242.778 461.407 263.797Z" fill="black"/>
<path d="M562.286 291.75C562.286 291.75 575.326 282.43 582.781 278.048C590.235 273.667 628.182 249.003 663.02 258.96C663.02 258.96 648.98 252.351 622.77 259.054C596.907 265.663 564.959 288.07 561.873 291.28L562.286 291.75Z" fill="black"/>
<path d="M581.853 308.8L577.369 326.196L550.644 320.354L576.804 325.481L581.853 308.8Z" fill="black"/>
<path fill-rule="evenodd" clip-rule="evenodd" d="M543.907 108.566C545.848 80.938 580.47 86.3392 586.54 100.959C588.714 106.136 590.409 121.617 585.751 135.796C582.389 146.049 572.435 147.603 572.435 147.603L572.682 155.557C572.682 155.557 569.06 165.889 558.012 164.342C543.523 162.324 544.327 156.142 544.327 156.142C544.327 156.142 543.233 118.153 543.907 108.566Z" fill="#E5B5A1"/>
<g style="mix-blend-mode:multiply">
<path fill-rule="evenodd" clip-rule="evenodd" d="M572.435 147.603C572.435 147.603 564.742 146.829 560.025 143.655C560.025 143.655 561.916 148.818 572.435 150.481V147.603Z" fill="#B28B67"/>
</g>
<path fill-rule="evenodd" clip-rule="evenodd" d="M574.116 132.173C574.116 132.173 571.341 134.408 569.168 131.566C570.705 132.307 572.445 132.521 574.116 132.173Z" fill="black"/>
<path fill-rule="evenodd" clip-rule="evenodd" d="M577.34 113.613C577.485 113.345 580.542 111.747 582.875 113.273C583.128 113.446 583.019 113.786 582.809 113.699C582.067 113.318 581.224 113.174 580.397 113.287C578.108 113.367 577.035 114.169 577.34 113.613Z" fill="black"/>
<path fill-rule="evenodd" clip-rule="evenodd" d="M561.351 113.649C561.525 113.374 565.097 111.704 567.719 113.201C568.016 113.367 567.871 113.714 567.632 113.627C566.765 113.258 565.813 113.13 564.879 113.258C562.271 113.389 560.982 114.242 561.351 113.649Z" fill="black"/>
<path fill-rule="evenodd" clip-rule="evenodd" d="M572.761 113.446C573.667 119.954 575.956 125.89 574.659 126.396C573.921 126.738 573.089 126.82 572.299 126.626C571.509 126.433 570.808 125.977 570.312 125.333C570.312 125.333 574.319 127.126 574.195 125.232C574.087 123.692 572.761 113.446 572.761 113.446Z" fill="black"/>
<path d="M579.622 117.77C580.45 117.77 581.121 117.1 581.121 116.274C581.121 115.447 580.45 114.777 579.622 114.777C578.793 114.777 578.122 115.447 578.122 116.274C578.122 117.1 578.793 117.77 579.622 117.77Z" fill="black"/>
<path d="M564.068 117.625C564.896 117.625 565.568 116.955 565.568 116.129C565.568 115.302 564.896 114.632 564.068 114.632C563.24 114.632 562.568 115.302 562.568 116.129C562.568 116.955 563.24 117.625 564.068 117.625Z" fill="black"/>
<g style="mix-blend-mode:multiply">
<path fill-rule="evenodd" clip-rule="evenodd" d="M574.282 126.23C576.086 124.697 572.783 125.622 571.203 125.586C569.624 125.55 573.913 126.533 574.282 126.23Z" fill="#B28B67"/>
</g>
<path d="M577.289 86.4478C577.289 86.4478 584.222 85.1247 588.706 93.635C590.727 97.4671 590.524 104.314 587.388 106.136C584.794 107.633 576.318 101.35 576.318 101.35C564.589 109.788 565.024 101.35 558.207 106.455C548.405 113.844 544.537 120.532 544.537 120.532C544.537 120.532 539.466 121.472 537.589 114.625C535.887 108.465 535.626 104.206 538.901 97.3442C548.536 77.2073 572.834 82.8326 577.289 86.4478Z" fill="black"/>
<g style="mix-blend-mode:multiply">
<path d="M223.977 161.283C225.394 163.509 227.124 165.52 229.113 167.256L223.977 161.283Z" fill="#B28B67"/>
</g>
<g style="mix-blend-mode:multiply">
<path d="M224.65 158.579C224.65 158.579 226.983 162.498 229.359 164.27C229.359 164.27 225.114 159.309 224.65 158.579Z" fill="#B28B67"/>
</g>
<g style="mix-blend-mode:multiply">
<path d="M225.179 156.46C226.298 157.905 227.508 159.277 228.801 160.567C228.801 160.567 225.802 156.721 225.179 156.46Z" fill="#B28B67"/>
</g>
</g>
<defs>
<clipPath id="clip0">
<rect width="847" height="419" fill="white"/>
</clipPath>
</defs>
</svg>